<?xml version="1.0" standalone="no"?>
<!DOCTYPE svg PUBLIC "-//W3C//DTD SVG 20010904//EN"
 "http://www.w3.org/TR/2001/REC-SVG-20010904/DTD/svg10.dtd">
<svg version="1.0" xmlns="http://www.w3.org/2000/svg"
 width="16.000000pt" height="16.000000pt" viewBox="0 0 16.000000 16.000000"
 preserveAspectRatio="xMidYMid meet">
<metadata>
Created by potrace 1.11, written by Peter Selinger 2001-2013
</metadata>
<g transform="translate(0.000000,16.000000) scale(0.002667,-0.002667)"
fill="#000000" stroke="none">
<path d="M0 3000 l0 -3000 488 0 487 0 -82 33 c-215 88 -340 208 -411 395 -23
60 -26 81 -25 207 0 204 42 358 157 580 49 95 232 394 247 405 4 3 972 4 2151
2 l2143 -2 105 -168 c221 -352 300 -568 300 -815 -1 -298 -159 -506 -472 -617
l-53 -19 483 0 482 -1 0 3000 0 3000 -1014 0 -1014 0 -54 -58 c-87 -94 -151
-234 -184 -402 -17 -87 -32 -699 -33 -1374 l-1 -418 57 -82 c31 -44 73 -103
92 -131 62 -88 484 -697 554 -800 38 -55 127 -185 199 -290 180 -263 509 -756
515 -772 4 -11 -368 -13 -2117 -13 -2021 0 -2122 1 -2108 18 8 9 116 168 240
352 216 322 321 477 485 715 167 242 228 330 391 565 94 135 203 291 242 347
l71 102 -11 828 c-10 852 -12 891 -55 1052 -33 126 -99 246 -178 322 l-39 39
-1019 0 -1019 0 0 -3000z"/>
<path d="M3165 5101 c-165 -42 -220 -228 -102 -349 56 -58 162 -75 237 -37 64
33 110 112 110 190 0 123 -128 225 -245 196z m124 -39 c19 -9 48 -34 65 -55
28 -35 31 -46 31 -107 0 -61 -3 -72 -31 -107 -39 -49 -87 -73 -146 -73 -83 0
-136 32 -169 105 -56 122 30 255 166 255 28 0 65 -8 84 -18z"/>
<path d="M2668 4009 c-17 -7 -35 -26 -48 -53 -18 -38 -19 -47 -8 -82 15 -46
67 -84 113 -84 62 0 122 74 111 134 -16 77 -88 114 -168 85z m101 -23 c83 -44
46 -171 -51 -171 -32 0 -45 6 -64 28 -69 81 20 192 115 143z"/>
<path d="M3005 3126 c-43 -18 -93 -79 -101 -121 -21 -116 58 -215 172 -215
148 0 228 176 131 287 -53 60 -133 79 -202 49z m154 -35 c68 -48 89 -131 52
-198 -35 -60 -66 -78 -136 -78 -72 1 -107 21 -136 76 -34 67 -22 135 34 188
47 43 136 49 186 12z"/>
<path d="M3534 2361 c-26 -11 -62 -56 -70 -87 -8 -33 13 -90 43 -114 46 -36
125 -24 165 24 39 47 27 127 -25 161 -31 20 -85 28 -113 16z m111 -46 c58 -57
15 -155 -67 -155 -56 0 -88 34 -88 94 0 36 5 48 26 65 38 30 98 28 129 -4z"/>
<path d="M2590 1972 c-44 -24 -72 -78 -64 -121 8 -40 54 -87 93 -96 61 -13
141 52 141 115 0 38 -36 90 -75 106 -44 18 -53 18 -95 -4z m119 -38 c51 -64
11 -154 -67 -154 -56 0 -83 25 -89 82 -5 40 -2 50 20 72 37 37 107 37 136 0z"/>
</g>
</svg>
